<svg width="81" height="78" viewBox="0 0 81 78" fill="none" xmlns="http://www.w3.org/2000/svg">
<circle cx="5.5" cy="32.5" r="5.5" fill="#101D33"/>
<circle cx="21.5" cy="19.5" r="5.5" fill="#101D33"/>
<circle cx="40.5" cy="5.5" r="5.5" fill="#101D33"/>
<circle cx="59.5" cy="19.5" r="5.5" fill="#101D33"/>
<circle cx="75.5" cy="32.5" r="5.5" fill="#101D33"/>
<rect x="4" y="40" width="3" height="15" fill="#101D33"/>
<rect x="5" y="51" width="9" height="4" fill="#101D33"/>
<rect x="16" y="37" width="49" height="23" fill="#101D33"/>
<rect x="16" y="62" width="49" height="6" fill="#101D33"/>
<rect x="37" y="70" width="9" height="8" fill="#101D33"/>
<rect x="27" y="75" width="27" height="3" fill="#101D33"/>
<rect x="74" y="40" width="4" height="15" fill="#101D33"/>
<rect x="67" y="51" width="11" height="4" fill="#101D33"/>
<rect x="20" y="27" width="3" height="8" fill="#101D33"/>
<rect x="20" y="32" width="10" height="4" fill="#101D33"/>
<rect x="39" y="13" width="3" height="22" fill="#101D33"/>
<rect x="58" y="27" width="3" height="9" fill="#101D33"/>
<rect x="51" y="32" width="10" height="4" fill="#101D33"/>
</svg>
